<svg width="14" height="18" viewBox="0 0 14 18" fill="none" xmlns="http://www.w3.org/2000/svg">
<path d="M7.07806 18C6.54208 18 4.93038 16.0848 3.5595 13.8171C1.81871 10.9387 0.819987 8.18412 0.819987 6.26065C0.802529 5.27528 0.98592 4.29668 1.35898 3.3845C1.67553 2.63669 2.16135 1.97257 2.77818 1.44443C3.99595 0.470592 5.51938 -0.0402508 7.07806 0.00257839C8.63777 -0.0410359 10.1624 0.469855 11.3809 1.44443C11.9981 1.97249 12.4841 2.63662 12.8009 3.3845C13.174 4.29668 13.3574 5.27528 13.3399 6.26065C13.3361 10.7621 8.1953 18 7.07806 18ZM7.19054 3.03574C6.53064 3.03574 5.88557 3.23141 5.33688 3.59801C4.78819 3.96461 4.36053 4.48568 4.10796 5.09532C3.8554 5.70497 3.78928 6.37582 3.91796 7.02304C4.04665 7.67026 4.36435 8.26479 4.83091 8.73146C5.29748 9.19812 5.89193 9.51597 6.53913 9.6448C7.18632 9.77363 7.85718 9.70766 8.46689 9.45523C9.07659 9.20281 9.59775 8.77526 9.96447 8.22665C10.3312 7.67805 10.527 7.03302 10.5272 6.37313C10.5264 5.48837 10.1746 4.64007 9.54905 4.01439C8.92351 3.3887 8.07529 3.03674 7.19054 3.03574Z" fill="white"/>
</svg>
