<svg width="18" height="18" viewBox="0 0 18 18" fill="none" xmlns="http://www.w3.org/2000/svg">
<path d="M2.01832 0H15.968C16.6684 0 17.2363 0.567848 17.2363 1.26832C17.2363 1.9688 16.6684 2.53665 15.968 2.53665H2.01832C1.31785 2.53665 0.75 1.9688 0.75 1.26832C0.75 0.567848 1.31785 0 2.01832 0Z" fill="white"/>
<path d="M7.09097 3.01455H10.2611V4.83954H7.09097V3.01455Z" fill="white"/>
<path d="M9.73289 9.86245C9.71689 9.12089 9.51719 8.39487 9.15168 7.74944C8.78618 8.39487 8.58648 9.12089 8.57048 9.86245C8.57048 11.03 8.82879 11.9755 9.15168 11.9755C9.47458 11.9755 9.73289 11.0294 9.73289 9.86245Z" fill="white"/>
<path fill-rule="evenodd" clip-rule="evenodd" d="M15.5456 18H2.44132C1.99291 17.9995 1.56301 17.8211 1.24594 17.5041C0.928869 17.187 0.750513 16.7571 0.75 16.3087L2.2295 7.00936C2.22984 6.56101 2.40805 6.13111 2.72502 5.81402C3.04199 5.49693 3.47182 5.31856 3.92017 5.31804H13.8543C14.3027 5.31856 14.7326 5.49691 15.0497 5.81398C15.3667 6.13106 15.5451 6.56095 15.5456 7.00936L17.2363 16.3087C17.2359 16.757 17.0577 17.1869 16.7408 17.504C16.4238 17.8211 15.994 17.9995 15.5456 18ZM9.09873 7.00936C8.15817 7.00936 7.23872 7.28827 6.45668 7.81082C5.67462 8.33337 5.06509 9.07608 4.70515 9.94505C4.34522 10.814 4.25104 11.7702 4.43453 12.6927C4.61803 13.6152 5.07095 14.4625 5.73603 15.1276C6.40111 15.7927 7.24847 16.2456 8.17096 16.4291C9.09345 16.6126 10.0496 16.5184 10.9186 16.1585C11.7876 15.7986 12.5303 15.189 13.0528 14.407C13.5754 13.6249 13.8543 12.7055 13.8543 11.7649C13.8529 10.5041 13.3515 9.29529 12.4599 8.40374C11.5684 7.5122 10.3596 7.01073 9.09873 7.00936Z" fill="white"/>
</svg>
